<svg width="33mm" height="33mm" version="1.1" viewBox="0 0 33 33" xmlns="http://www.w3.org/2000/svg"><rect width="100%" height="100%" fill="#ffffff"/><path d="M2,2H3V3H2zM3,2H4V3H3zM4,2H5V3H4zM5,2H6V3H5zM6,2H7V3H6zM7,2H8V3H7zM8,2H9V3H8zM11,2H12V3H11zM15,2H16V3H15zM18,2H19V3H18zM20,2H21V3H20zM21,2H22V3H21zM24,2H25V3H24zM25,2H26V3H25zM26,2H27V3H26zM27,2H28V3H27zM28,2H29V3H28zM29,2H30V3H29zM30,2H31V3H30zM2,3H3V4H2zM8,3H9V4H8zM10,3H11V4H10zM14,3H15V4H14zM16,3H17V4H16zM17,3H18V4H17zM18,3H19V4H18zM21,3H22V4H21zM22,3H23V4H22zM24,3H25V4H24zM30,3H31V4H30zM2,4H3V5H2zM4,4H5V5H4zM5,4H6V5H5zM6,4H7V5H6zM8,4H9V5H8zM12,4H13V5H12zM13,4H14V5H13zM14,4H15V5H14zM15,4H16V5H15zM16,4H17V5H16zM18,4H19V5H18zM24,4H25V5H24zM26,4H27V5H26zM27,4H28V5H27zM28,4H29V5H28zM30,4H31V5H30zM2,5H3V6H2zM4,5H5V6H4zM5,5H6V6H5zM6,5H7V6H6zM8,5H9V6H8zM11,5H12V6H11zM12,5H13V6H12zM13,5H14V6H13zM15,5H16V6H15zM16,5H17V6H16zM17,5H18V6H17zM19,5H20V6H19zM20,5H21V6H20zM21,5H22V6H21zM24,5H25V6H24zM26,5H27V6H26zM27,5H28V6H27zM28,5H29V6H28zM30,5H31V6H30zM2,6H3V7H2zM4,6H5V7H4zM5,6H6V7H5zM6,6H7V7H6zM8,6H9V7H8zM10,6H11V7H10zM11,6H12V7H11zM12,6H13V7H12zM16,6H17V7H16zM19,6H20V7H19zM20,6H21V7H20zM24,6H25V7H24zM26,6H27V7H26zM27,6H28V7H27zM28,6H29V7H28zM30,6H31V7H30zM2,7H3V8H2zM8,7H9V8H8zM11,7H12V8H11zM15,7H16V8H15zM19,7H20V8H19zM20,7H21V8H20zM21,7H22V8H21zM22,7H23V8H22zM24,7H25V8H24zM30,7H31V8H30zM2,8H3V9H2zM3,8H4V9H3zM4,8H5V9H4zM5,8H6V9H5zM6,8H7V9H6zM7,8H8V9H7zM8,8H9V9H8zM10,8H11V9H10zM12,8H13V9H12zM14,8H15V9H14zM16,8H17V9H16zM18,8H19V9H18zM20,8H21V9H20zM22,8H23V9H22zM24,8H25V9H24zM25,8H26V9H25zM26,8H27V9H26zM27,8H28V9H27zM28,8H29V9H28zM29,8H30V9H29zM30,8H31V9H30zM13,9H14V10H13zM14,9H15V10H14zM15,9H16V10H15zM16,9H17V10H16zM18,9H19V10H18zM19,9H20V10H19zM20,9H21V10H20zM21,9H22V10H21zM2,10H3V11H2zM4,10H5V11H4zM6,10H7V11H6zM8,10H9V11H8zM11,10H12V11H11zM13,10H14V11H13zM16,10H17V11H16zM17,10H18V11H17zM18,10H19V11H18zM19,10H20V11H19zM26,10H27V11H26zM29,10H30V11H29zM3,11H4V12H3zM7,11H8V12H7zM10,11H11V12H10zM11,11H12V12H11zM12,11H13V12H12zM14,11H15V12H14zM16,11H17V12H16zM17,11H18V12H17zM19,11H20V12H19zM20,11H21V12H20zM23,11H24V12H23zM24,11H25V12H24zM28,11H29V12H28zM29,11H30V12H29zM4,12H5V13H4zM5,12H6V13H5zM6,12H7V13H6zM8,12H9V13H8zM13,12H14V13H13zM14,12H15V13H14zM15,12H16V13H15zM18,12H19V13H18zM20,12H21V13H20zM22,12H23V13H22zM24,12H25V13H24zM26,12H27V13H26zM27,12H28V13H27zM28,12H29V13H28zM29,12H30V13H29zM30,12H31V13H30zM2,13H3V14H2zM3,13H4V14H3zM5,13H6V14H5zM6,13H7V14H6zM7,13H8V14H7zM10,13H11V14H10zM11,13H12V14H11zM12,13H13V14H12zM14,13H15V14H14zM18,13H19V14H18zM19,13H20V14H19zM24,13H25V14H24zM29,13H30V14H29zM6,14H7V15H6zM7,14H8V15H7zM8,14H9V15H8zM9,14H10V15H9zM10,14H11V15H10zM12,14H13V15H12zM13,14H14V15H13zM17,14H18V15H17zM18,14H19V15H18zM22,14H23V15H22zM23,14H24V15H23zM24,14H25V15H24zM28,14H29V15H28zM2,15H3V16H2zM3,15H4V16H3zM4,15H5V16H4zM7,15H8V16H7zM9,15H10V16H9zM15,15H16V16H15zM17,15H18V16H17zM18,15H19V16H18zM19,15H20V16H19zM22,15H23V16H22zM23,15H24V16H23zM29,15H30V16H29zM2,16H3V17H2zM3,16H4V17H3zM6,16H7V17H6zM8,16H9V17H8zM9,16H10V17H9zM11,16H12V17H11zM12,16H13V17H12zM13,16H14V17H13zM16,16H17V17H16zM18,16H19V17H18zM19,16H20V17H19zM20,16H21V17H20zM23,16H24V17H23zM27,16H28V17H27zM29,16H30V17H29zM30,16H31V17H30zM2,17H3V18H2zM4,17H5V18H4zM5,17H6V18H5zM6,17H7V18H6zM7,17H8V18H7zM12,17H13V18H12zM15,17H16V18H15zM16,17H17V18H16zM17,17H18V18H17zM19,17H20V18H19zM21,17H22V18H21zM23,17H24V18H23zM24,17H25V18H24zM4,18H5V19H4zM6,18H7V19H6zM7,18H8V19H7zM8,18H9V19H8zM12,18H13V19H12zM13,18H14V19H13zM16,18H17V19H16zM17,18H18V19H17zM18,18H19V19H18zM19,18H20V19H19zM22,18H23V19H22zM23,18H24V19H23zM24,18H25V19H24zM25,18H26V19H25zM28,18H29V19H28zM29,18H30V19H29zM30,18H31V19H30zM3,19H4V20H3zM4,19H5V20H4zM5,19H6V20H5zM11,19H12V20H11zM12,19H13V20H12zM13,19H14V20H13zM14,19H15V20H14zM16,19H17V20H16zM17,19H18V20H17zM18,19H19V20H18zM21,19H22V20H21zM22,19H23V20H22zM27,19H28V20H27zM28,19H29V20H28zM30,19H31V20H30zM2,20H3V21H2zM4,20H5V21H4zM5,20H6V21H5zM8,20H9V21H8zM9,20H10V21H9zM11,20H12V21H11zM12,20H13V21H12zM14,20H15V21H14zM15,20H16V21H15zM28,20H29V21H28zM30,20H31V21H30zM3,21H4V22H3zM4,21H5V22H4zM5,21H6V22H5zM6,21H7V22H6zM7,21H8V22H7zM9,21H10V22H9zM14,21H15V22H14zM17,21H18V22H17zM19,21H20V22H19zM20,21H21V22H20zM22,21H23V22H22zM26,21H27V22H26zM29,21H30V22H29zM2,22H3V23H2zM4,22H5V23H4zM5,22H6V23H5zM8,22H9V23H8zM9,22H10V23H9zM10,22H11V23H10zM11,22H12V23H11zM13,22H14V23H13zM14,22H15V23H14zM17,22H18V23H17zM19,22H20V23H19zM20,22H21V23H20zM22,22H23V23H22zM23,22H24V23H23zM24,22H25V23H24zM25,22H26V23H25zM26,22H27V23H26zM29,22H30V23H29zM30,22H31V23H30zM10,23H11V24H10zM14,23H15V24H14zM15,23H16V24H15zM17,23H18V24H17zM18,23H19V24H18zM20,23H21V24H20zM21,23H22V24H21zM22,23H23V24H22zM26,23H27V24H26zM27,23H28V24H27zM28,23H29V24H28zM29,23H30V24H29zM2,24H3V25H2zM3,24H4V25H3zM4,24H5V25H4zM5,24H6V25H5zM6,24H7V25H6zM7,24H8V25H7zM8,24H9V25H8zM12,24H13V25H12zM14,24H15V25H14zM16,24H17V25H16zM18,24H19V25H18zM20,24H21V25H20zM22,24H23V25H22zM24,24H25V25H24zM26,24H27V25H26zM29,24H30V25H29zM30,24H31V25H30zM2,25H3V26H2zM8,25H9V26H8zM13,25H14V26H13zM15,25H16V26H15zM16,25H17V26H16zM17,25H18V26H17zM19,25H20V26H19zM22,25H23V26H22zM26,25H27V26H26zM29,25H30V26H29zM30,25H31V26H30zM2,26H3V27H2zM4,26H5V27H4zM5,26H6V27H5zM6,26H7V27H6zM8,26H9V27H8zM10,26H11V27H10zM11,26H12V27H11zM14,26H15V27H14zM16,26H17V27H16zM17,26H18V27H17zM22,26H23V27H22zM23,26H24V27H23zM24,26H25V27H24zM25,26H26V27H25zM26,26H27V27H26zM30,26H31V27H30zM2,27H3V28H2zM4,27H5V28H4zM5,27H6V28H5zM6,27H7V28H6zM8,27H9V28H8zM11,27H12V28H11zM13,27H14V28H13zM15,27H16V28H15zM16,27H17V28H16zM19,27H20V28H19zM21,27H22V28H21zM23,27H24V28H23zM25,27H26V28H25zM26,27H27V28H26zM27,27H28V28H27zM29,27H30V28H29zM30,27H31V28H30zM2,28H3V29H2zM4,28H5V29H4zM5,28H6V29H5zM6,28H7V29H6zM8,28H9V29H8zM10,28H11V29H10zM11,28H12V29H11zM12,28H13V29H12zM14,28H15V29H14zM15,28H16V29H15zM18,28H19V29H18zM19,28H20V29H19zM21,28H22V29H21zM23,28H24V29H23zM25,28H26V29H25zM26,28H27V29H26zM27,28H28V29H27zM30,28H31V29H30zM2,29H3V30H2zM8,29H9V30H8zM11,29H12V30H11zM13,29H14V30H13zM14,29H15V30H14zM15,29H16V30H15zM16,29H17V30H16zM17,29H18V30H17zM18,29H19V30H18zM19,29H20V30H19zM21,29H22V30H21zM25,29H26V30H25zM26,29H27V30H26zM29,29H30V30H29zM2,30H3V31H2zM3,30H4V31H3zM4,30H5V31H4zM5,30H6V31H5zM6,30H7V31H6zM7,30H8V31H7zM8,30H9V31H8zM10,30H11V31H10zM11,30H12V31H11zM12,30H13V31H12zM13,30H14V31H13zM18,30H19V31H18zM21,30H22V31H21zM22,30H23V31H22zM23,30H24V31H23zM24,30H25V31H24zM26,30H27V31H26zM27,30H28V31H27zM28,30H29V31H28zM29,30H30V31H29zM30,30H31V31H30z" id="qr-path" fill="#000000" fill-opacity="1" fill-rule="nonzero" stroke="none"/></svg>